<svg width="56" height="56" viewBox="0 0 56 56" fill="none" xmlns="http://www.w3.org/2000/svg">
<path fill-rule="evenodd" clip-rule="evenodd" d="M27.9905 10C28.351 10 28.6967 10.1449 28.9523 10.4031C29.9039 11.3531 30.8706 12.2873 31.852 13.2055C32.6319 13.9439 33.4391 14.7082 34.27 15.5205C36.1171 17.3279 37.9678 19.2792 39.4804 21.3894C42.5329 25.6484 44.2909 30.7012 41.8529 36.6512C39.544 42.2782 33.9845 46 27.9996 46C22.0147 46 16.4552 42.2782 14.1481 36.6512C11.7102 30.7049 13.4646 25.6521 16.5134 21.3949C18.0241 19.2829 19.8731 17.3334 21.7184 15.5242C22.5443 14.7149 23.3433 13.9566 24.1171 13.2223L24.1309 13.2092L24.2583 13.0882C25.2197 12.1755 26.1443 11.2977 27.0288 10.4031C27.2843 10.1449 27.6301 10 27.9905 10Z" fill="#3454D1"/>
<path fill-rule="evenodd" clip-rule="evenodd" d="M27.9905 10C28.351 10 28.6967 10.1449 28.9523 10.4031C29.9039 11.3531 30.8706 12.2873 31.852 13.2055C32.6319 13.9439 33.4391 14.7082 34.27 15.5205C36.1171 17.3279 37.9678 19.2792 39.4804 21.3894C42.5329 25.6484 44.2909 30.7012 41.8529 36.6512C39.544 42.2782 33.9845 46 27.9996 46C22.0147 46 16.4552 42.2782 14.1481 36.6512C11.7102 30.7049 13.4646 25.6521 16.5134 21.3949C18.0241 19.2829 19.8731 17.3334 21.7184 15.5242C22.5443 14.7149 23.3433 13.9566 24.1171 13.2223L24.1309 13.2092L24.2583 13.0882C25.2197 12.1755 26.1443 11.2977 27.0288 10.4031C27.2843 10.1449 27.6301 10 27.9905 10Z" fill="#3454D1"/>
<path d="M28.9523 10.4031C28.6967 10.1449 28.351 10 27.9905 10C27.6301 10 27.2843 10.1449 27.0288 10.4031C26.1443 11.2977 25.2197 12.1755 24.2583 13.0882C24.2159 13.1285 24.1734 13.1688 24.1309 13.2092C24.1263 13.2135 24.1217 13.2179 24.1171 13.2223C23.3433 13.9566 22.5443 14.7149 21.7184 15.5242C19.8731 17.3334 18.0241 19.2829 16.5134 21.3949C13.4646 25.6521 11.7102 30.7049 14.1481 36.6512C16.4552 42.2782 22.0147 46 27.9996 46C33.9845 46 39.544 42.2782 41.8529 36.6512C44.2909 30.7012 42.5329 25.6484 39.4804 21.3894C37.9678 19.2792 36.1171 17.3279 34.27 15.5205C33.4391 14.7082 32.6319 13.9439 31.852 13.2055C30.8706 12.2873 29.9039 11.3531 28.9523 10.4031Z" fill="#3454D1"/>
<path d="M28 56C43.464 56 56 43.464 56 28C56 12.536 43.464 0 28 0C12.536 0 0 12.536 0 28C0 43.464 12.536 56 28 56ZM28.9523 10.4031C28.6967 10.1449 28.351 10 27.9905 10C27.6301 10 27.2843 10.1449 27.0288 10.4031C26.1443 11.2977 25.2197 12.1755 24.2583 13.0882L24.1309 13.2092L24.1171 13.2223C23.3433 13.9566 22.5443 14.7149 21.7184 15.5242C19.8731 17.3334 18.0241 19.2829 16.5134 21.3949C13.4646 25.6521 11.7102 30.7049 14.1481 36.6512C16.4552 42.2782 22.0147 46 27.9996 46C33.9845 46 39.544 42.2782 41.8529 36.6512C44.2909 30.7012 42.5329 25.6484 39.4804 21.3894C37.9678 19.2792 36.1171 17.3279 34.27 15.5205C33.4391 14.7082 32.6319 13.9439 31.852 13.2055C30.8706 12.2873 29.9039 11.3531 28.9523 10.4031Z" fill="#3454D1"/>
<path d="M28.9523 10.4031C28.6967 10.1449 28.351 10 27.9905 10C27.6301 10 27.2843 10.1449 27.0288 10.4031C26.1052 11.3372 25.1381 12.2529 24.1309 13.2092C23.3528 13.9476 22.5492 14.7101 21.7184 15.5242C19.8731 17.3334 18.0241 19.2829 16.5134 21.3949C13.4646 25.6521 11.7102 30.7049 14.1481 36.6512C16.4552 42.2782 22.0147 46 27.9996 46C33.9845 46 39.544 42.2782 41.8529 36.6512C44.2909 30.7012 42.5329 25.6484 39.4804 21.3894C37.9678 19.2792 36.1171 17.3279 34.27 15.5205C33.4391 14.7082 32.6319 13.9439 31.852 13.2055C30.8706 12.2873 29.9039 11.3531 28.9523 10.4031Z" fill="#EFEFEF"/>
<path d="M40.1885 21.3037C40.5864 20.9075 41.2414 20.8978 41.6514 21.2822C42.0612 21.6668 42.0713 22.3 41.6736 22.6963L30.3771 33.9463C30.1823 34.1403 29.9143 34.25 29.6346 34.25C29.3549 34.25 29.0869 34.1403 28.8921 33.9463L23.7166 28.792L14.777 37.6963C14.3792 38.0925 13.7242 38.1022 13.3142 37.7178C12.9043 37.3332 12.8943 36.7 13.292 36.3037L22.9751 26.6601L23.0509 26.5918C23.2365 26.4408 23.4728 26.3574 23.7176 26.3574C23.997 26.3575 24.2644 26.4665 24.4591 26.6601L29.6336 31.8135L40.1885 21.3037Z" fill="#3454D1"/>
</svg>
