<svg width="174" height="56" viewBox="0 0 174 56" fill="none" xmlns="http://www.w3.org/2000/svg">
<rect width="174" height="56" rx="12" fill="white"/>
<path d="M28 0C43.464 0 56 12.536 56 28C56 43.464 43.464 56 28 56C12.536 56 0 43.464 0 28C0 12.536 12.536 0 28 0ZM30.377 33.9463C30.1822 34.1402 29.9143 34.2499 29.6348 34.25C29.3551 34.25 29.0864 34.1403 28.8916 33.9463L23.7168 28.792L14.7773 37.6963C14.7444 37.7291 14.7081 37.7576 14.6719 37.7852C17.2247 42.7723 22.4272 46 28 46C33.9847 45.9998 39.5436 42.2781 41.8525 36.6514C43.8963 31.6635 42.9909 27.3064 40.8467 23.5186L30.377 33.9463ZM27.9902 10C27.6299 10.0001 27.2838 10.1452 27.0283 10.4033C26.1049 11.3373 25.1379 12.2528 24.1309 13.209C23.3528 13.9474 22.5495 14.7103 21.7188 15.5244C19.8736 17.3335 18.0244 19.2827 16.5137 21.3945C13.6153 25.4417 11.8882 30.2079 13.8193 35.7773L22.9756 26.6602L23.0508 26.5918C23.2364 26.4408 23.4729 26.3574 23.7178 26.3574C23.997 26.3576 24.2643 26.4666 24.459 26.6602L29.6338 31.8135L39.7363 21.7529C39.6521 21.6312 39.5668 21.5101 39.4805 21.3896C37.9679 19.2795 36.1166 17.3279 34.2695 15.5205C33.4388 14.7083 32.6314 13.9435 31.8516 13.2051C30.8703 12.287 29.9036 11.3531 28.9521 10.4033C28.6966 10.1452 28.3507 10 27.9902 10Z" fill="#3454D1"/>
<path d="M161.686 37.7C159.553 37.7 157.633 37.2333 155.926 36.3C154.22 35.34 152.873 33.9933 151.886 32.26C150.926 30.5267 150.446 28.5267 150.446 26.26C150.446 23.9933 150.94 21.9933 151.926 20.26C152.94 18.5267 154.313 17.1933 156.046 16.26C157.78 15.3 159.713 14.82 161.846 14.82C163.98 14.82 165.913 15.3 167.646 16.26C169.38 17.1933 170.74 18.5267 171.726 20.26C172.74 21.9933 173.246 23.9933 173.246 26.26C173.246 28.5267 172.726 30.5267 171.686 32.26C170.673 33.9933 169.286 35.34 167.526 36.3C165.793 37.2333 163.846 37.7 161.686 37.7ZM161.686 32.82C162.7 32.82 163.646 32.58 164.526 32.1C165.433 31.5933 166.153 30.8467 166.686 29.86C167.22 28.8733 167.486 27.6733 167.486 26.26C167.486 24.1533 166.926 22.54 165.806 21.42C164.713 20.2733 163.366 19.7 161.766 19.7C160.166 19.7 158.82 20.2733 157.726 21.42C156.66 22.54 156.126 24.1533 156.126 26.26C156.126 28.3667 156.646 29.9933 157.686 31.14C158.753 32.26 160.086 32.82 161.686 32.82Z" fill="#3454D1"/>
<path d="M137.141 32.18L142.741 15.18H148.701L140.501 37.34H133.701L125.541 15.18H131.541L137.141 32.18Z" fill="#3454D1"/>
<path d="M124.882 15.18L111.162 47.82H105.202L110.002 36.78L101.122 15.18H107.402L113.122 30.66L118.922 15.18H124.882Z" fill="#3454D1"/>
<path d="M98.1494 7.74V37.34H92.5494V7.74H98.1494Z" fill="#3454D1"/>
<path d="M74.12 14.82C75.7733 14.82 77.2267 15.1533 78.48 15.82C79.7333 16.46 80.72 17.3 81.44 18.34V15.18H87.08V37.5C87.08 39.5533 86.6667 41.38 85.84 42.98C85.0133 44.6067 83.7733 45.8867 82.12 46.82C80.4667 47.78 78.4667 48.26 76.12 48.26C72.9733 48.26 70.3867 47.5267 68.36 46.06C66.36 44.5933 65.2267 42.5933 64.96 40.06H70.52C70.8133 41.0733 71.44 41.8733 72.4 42.46C73.3867 43.0733 74.5733 43.38 75.96 43.38C77.5867 43.38 78.9067 42.8867 79.92 41.9C80.9333 40.94 81.44 39.4733 81.44 37.5V34.06C80.72 35.1 79.72 35.9667 78.44 36.66C77.1867 37.3533 75.7467 37.7 74.12 37.7C72.2533 37.7 70.5467 37.22 69 36.26C67.4533 35.3 66.2267 33.9533 65.32 32.22C64.44 30.46 64 28.4467 64 26.18C64 23.94 64.44 21.9533 65.32 20.22C66.2267 18.4867 67.44 17.1533 68.96 16.22C70.5067 15.2867 72.2267 14.82 74.12 14.82ZM81.44 26.26C81.44 24.9 81.1733 23.74 80.64 22.78C80.1067 21.7933 79.3867 21.0467 78.48 20.54C77.5733 20.0067 76.6 19.74 75.56 19.74C74.52 19.74 73.56 19.9933 72.68 20.5C71.8 21.0067 71.08 21.7533 70.52 22.74C69.9867 23.7 69.72 24.8467 69.72 26.18C69.72 27.5133 69.9867 28.6867 70.52 29.7C71.08 30.6867 71.8 31.4467 72.68 31.98C73.5867 32.5133 74.5467 32.78 75.56 32.78C76.6 32.78 77.5733 32.5267 78.48 32.02C79.3867 31.4867 80.1067 30.74 80.64 29.78C81.1733 28.7933 81.44 27.62 81.44 26.26Z" fill="#3454D1"/>
</svg>
