<svg width="56" height="56" viewBox="0 0 56 56" fill="none" xmlns="http://www.w3.org/2000/svg">
<path d="M28 0C43.464 0 56 12.536 56 28C56 43.464 43.464 56 28 56C12.536 56 0 43.464 0 28C0 12.536 12.536 0 28 0ZM30.377 33.9463C30.1822 34.1402 29.9143 34.2499 29.6348 34.25C29.3551 34.25 29.0864 34.1403 28.8916 33.9463L23.7168 28.792L14.7773 37.6963C14.7444 37.7291 14.7081 37.7576 14.6719 37.7852C17.2247 42.7723 22.4272 46 28 46C33.9847 45.9998 39.5436 42.2781 41.8525 36.6514C43.8963 31.6635 42.9909 27.3064 40.8467 23.5186L30.377 33.9463ZM27.9902 10C27.6299 10.0001 27.2838 10.1452 27.0283 10.4033C26.1049 11.3373 25.1379 12.2528 24.1309 13.209C23.3528 13.9474 22.5495 14.7103 21.7188 15.5244C19.8736 17.3335 18.0244 19.2827 16.5137 21.3945C13.6153 25.4417 11.8882 30.2079 13.8193 35.7773L22.9756 26.6602L23.0508 26.5918C23.2364 26.4408 23.4729 26.3574 23.7178 26.3574C23.997 26.3576 24.2643 26.4666 24.459 26.6602L29.6338 31.8135L39.7363 21.7529C39.6521 21.6312 39.5668 21.5101 39.4805 21.3896C37.9679 19.2795 36.1166 17.3279 34.2695 15.5205C33.4388 14.7083 32.6314 13.9435 31.8516 13.2051C30.8703 12.287 29.9036 11.3531 28.9521 10.4033C28.6966 10.1452 28.3507 10 27.9902 10Z" fill="#3C3C3C"/>
</svg>
